# xmcd CD database file
#
# Track frame offsets:
#	150
#	18559
#	40478
#	72360
#	92859
#	121102
#	152456
#	171560
#	190911
#	212225
#	233534
#	256666
#	281594
#	308676
#	334880
#
# Disc length: 4703 seconds
#
# Revision: 1
# Processed by: cddbd v1.4PL0 Copyright (c) Steve Scherf et al.
# Submitted via: jetAudio 5
#
DISCID=d0125d0f
DTITLE=SACRED SPIRIT - Best Dreams
DYEAR=1900
DGENRE=New Age
TTITLE0=Wishes Of Happiness and Prosperity
TTITLE1=Yane-Heja-Hee
TTITLE2=Celebrate Wild Rice
TTITLE3=Culture Clash
TTITLE4=Branishing The Tomahawk
TTITLE5=Winter Ceremony
TTITLE6=On The Road
TTITLE7=The Cradlesong
TTITLE8=Dela-Dela
TTITLE9=A-La-Ke
TTITLE10=The Counterc Lockwise Circle Dance
TTITLE11=The Sun Won't Talk No More
TTITLE12=Advice For The Young
TTITLE13=Land Of Promice
TTITLE14=May You Walk In Sunshine
EXTD=
EXTT0=
EXTT1=
EXTT2=
EXTT3=
EXTT4=
EXTT5=
EXTT6=
EXTT7=
EXTT8=
EXTT9=
EXTT10=
EXTT11=
EXTT12=
EXTT13=
EXTT14=
PLAYORDER=
